<svg width="50" height="40" viewBox="0 0 50 40" fill="none" xmlns="http://www.w3.org/2000/svg">
<g clip-path="url(#clip0_151_457)">
<path d="M3.69274 18.1816H24.9996V21.7327H3.69274V18.1816ZM0.141602 9.30371H17.8973V12.8548H0.141602V9.30371Z" fill="white"/>
<path d="M49.7144 19.2575L44.3877 6.82848C44.251 6.50902 44.0235 6.23674 43.7334 6.04545C43.4433 5.85417 43.1034 5.7523 42.7559 5.75249H37.4292V2.20135C37.4292 1.73044 37.2422 1.27882 36.9092 0.945834C36.5762 0.61285 36.1246 0.425781 35.6537 0.425781H7.24455V3.97692H33.8781V26.271C33.069 26.7408 32.3609 27.3661 31.7947 28.1109C31.2285 28.8557 30.8154 29.7052 30.5791 30.6104H19.4214C18.9892 28.9367 17.9615 27.478 16.5308 26.5078C15.1 25.5376 13.3646 25.1225 11.6497 25.3403C9.93487 25.5582 8.35831 26.3939 7.21557 27.691C6.07284 28.9881 5.44238 30.6574 5.44238 32.386C5.44238 34.1147 6.07284 35.784 7.21557 37.081C8.35831 38.3781 9.93487 39.2139 11.6497 39.4317C13.3646 39.6495 15.1 39.2344 16.5308 38.2642C17.9615 37.294 18.9892 35.8353 19.4214 34.1616H30.5791C30.9653 35.6854 31.8487 37.037 33.0893 38.0024C34.33 38.9679 35.8572 39.4921 37.4292 39.4921C39.0013 39.4921 40.5284 38.9679 41.7691 38.0024C43.0098 37.037 43.8931 35.6854 44.2794 34.1616H48.0826C48.5535 34.1616 49.0052 33.9745 49.3381 33.6415C49.6711 33.3085 49.8582 32.8569 49.8582 32.386V19.957C49.8583 19.7165 49.8093 19.4785 49.7144 19.2575ZM12.5713 35.9371C11.8689 35.9371 11.1823 35.7289 10.5984 35.3387C10.0144 34.9485 9.55921 34.3939 9.29044 33.745C9.02166 33.0961 8.95134 32.3821 9.08836 31.6932C9.22538 31.0044 9.56359 30.3716 10.0602 29.875C10.5569 29.3783 11.1896 29.0401 11.8785 28.9031C12.5673 28.7661 13.2813 28.8364 13.9302 29.1052C14.5791 29.374 15.1337 29.8291 15.5239 30.4131C15.9141 30.9971 16.1224 31.6837 16.1224 32.386C16.1215 33.3275 15.747 34.2302 15.0813 34.896C14.4155 35.5618 13.5128 35.9362 12.5713 35.9371ZM37.4292 9.30362H41.584L45.3909 18.1815H37.4292V9.30362ZM37.4292 35.9371C36.7269 35.9371 36.0403 35.7289 35.4563 35.3387C34.8723 34.9485 34.4172 34.3939 34.1484 33.745C33.8796 33.0961 33.8093 32.3821 33.9463 31.6932C34.0833 31.0044 34.4215 30.3716 34.9182 29.875C35.4148 29.3783 36.0476 29.0401 36.7364 28.9031C37.4253 28.7661 38.1393 28.8364 38.7882 29.1052C39.4371 29.374 39.9917 29.8291 40.3819 30.4131C40.7721 30.9971 40.9804 31.6837 40.9804 32.386C40.9794 33.3275 40.605 34.2302 39.9392 34.896C39.2734 35.5618 38.3708 35.9362 37.4292 35.9371ZM46.3071 30.6104H44.2794C43.8882 29.0895 43.0035 27.7414 41.7638 26.7774C40.5241 25.8135 38.9996 25.2881 37.4292 25.2837V21.7326H46.3071V30.6104Z" fill="white"/>
</g>
<defs>
<clipPath id="clip0_151_457">
<rect width="50" height="39.7727" fill="white"/>
</clipPath>
</defs>
</svg>
