<svg width="30" height="30" viewBox="0 0 30 30" fill="none" xmlns="http://www.w3.org/2000/svg">
<g clip-path="url(#clip0_151_573)">
<path d="M20.8335 10.0002V7.54183C20.8335 6.77578 20.6826 6.01724 20.3895 5.30951C20.0963 4.60178 19.6666 3.95871 19.125 3.41704C18.5833 2.87536 17.9402 2.44568 17.2325 2.15253C16.5248 1.85938 15.7662 1.7085 15.0002 1.7085C14.2341 1.7085 13.4756 1.85938 12.7678 2.15253C12.0601 2.44568 11.417 2.87536 10.8754 3.41704C10.3337 3.95871 9.90402 4.60178 9.61087 5.30951C9.31771 6.01724 9.16683 6.77578 9.16683 7.54183V13.3752C9.16683 13.5962 9.25463 13.8081 9.41091 13.9644C9.56719 14.1207 9.77915 14.2085 10.0002 14.2085C10.2212 14.2085 10.4331 14.1207 10.5894 13.9644C10.7457 13.8081 10.8335 13.5962 10.8335 13.3752V11.6668H17.5002V10.0002H10.8335V7.54183C10.8335 6.43676 11.2725 5.37695 12.0539 4.59555C12.8353 3.81415 13.8951 3.37516 15.0002 3.37516C16.1052 3.37516 17.165 3.81415 17.9464 4.59555C18.7278 5.37695 19.1668 6.43676 19.1668 7.54183V13.3335C19.1668 13.5545 19.2546 13.7665 19.4109 13.9228C19.5672 14.079 19.7792 14.1668 20.0002 14.1668C20.2212 14.1668 20.4331 14.079 20.5894 13.9228C20.7457 13.7665 20.8335 13.5545 20.8335 13.3335V11.6668H25.0002V26.6668H5.00016V11.6668H7.50016V10.0002H3.3335V26.7418C3.3335 27.164 3.50119 27.5688 3.79968 27.8673C4.09818 28.1658 4.50303 28.3335 4.92516 28.3335H25.0752C25.4973 28.3335 25.9021 28.1658 26.2006 27.8673C26.4991 27.5688 26.6668 27.164 26.6668 26.7418V10.0002H20.8335Z" fill="#181818"/>
</g>
<defs>
<clipPath id="clip0_151_573">
<rect width="30" height="30" fill="white"/>
</clipPath>
</defs>
</svg>
