<svg width="50" height="47" viewBox="0 0 50 47" fill="none" xmlns="http://www.w3.org/2000/svg">
<g clip-path="url(#clip0_151_447)">
<path d="M9.0201 0.284183C8.69064 0.284194 8.36767 0.375875 8.08733 0.548968C7.807 0.722062 7.58035 0.969741 7.43275 1.2643L0.330474 15.4688C0.176876 15.7747 0.114936 16.1184 0.152107 16.4586C0.189278 16.7988 0.323976 17.121 0.539991 17.3865L23.6224 45.7955C23.7889 46.0004 23.9989 46.1655 24.2373 46.2789C24.4756 46.3924 24.7363 46.4512 25.0002 46.4512C25.2642 46.4512 25.5248 46.3924 25.7632 46.2789C26.0015 46.1655 26.2116 46.0004 26.3781 45.7955L49.4604 17.3865C49.677 17.1214 49.8124 16.7993 49.8502 16.4591C49.888 16.1189 49.8266 15.775 49.6735 15.4688L42.5712 1.2643C42.4234 0.969201 42.1962 0.721165 41.9151 0.548034C41.6341 0.374904 41.3104 0.283534 40.9803 0.284183H9.0201ZM4.7907 14.4887L10.1174 3.83532H17.3972L14.7339 14.4887H4.7907ZM5.64652 18.0399H14.8191L20.5471 36.3779L5.64652 18.0399ZM18.5371 18.0399H31.4633L25.0002 38.7181L18.5371 18.0399ZM35.1849 18.0399H44.3539L29.4533 36.3779L35.1849 18.0399ZM45.2097 14.4887H35.2666L32.6032 3.83532H39.883L45.2097 14.4887ZM31.6053 14.4887H18.3951L21.0585 3.83532H28.942L31.6053 14.4887Z" fill="white"/>
</g>
<defs>
<clipPath id="clip0_151_447">
<rect width="50" height="46.5909" fill="white"/>
</clipPath>
</defs>
</svg>
