<svg width="50" height="45" viewBox="0 0 50 45" fill="none" xmlns="http://www.w3.org/2000/svg">
<g clip-path="url(#clip0_151_451)">
<path d="M21.284 25.1416C22.39 24.4227 23.6808 24.04 24.9999 24.04C26.319 24.04 27.6098 24.4227 28.7158 25.1416L46.3863 36.628C46.9189 36.9742 47.3254 37.4834 47.5451 38.0795C47.7648 38.6756 47.7859 39.3267 47.6054 39.9358C47.4248 40.5449 47.0522 41.0794 46.5432 41.4595C46.0341 41.8396 45.4159 42.045 44.7806 42.045H5.21922C4.58392 42.045 3.96566 41.8396 3.45661 41.4595C2.94756 41.0794 2.57499 40.5449 2.39444 39.9358C2.2139 39.3267 2.23505 38.6756 2.45474 38.0795C2.67443 37.4834 3.08089 36.9742 3.61354 36.628L21.284 25.1416Z" stroke="white" stroke-width="4" stroke-linecap="round" stroke-linejoin="round"/>
<path d="M24.9998 22.727C24.9998 22.727 31.818 12.8566 31.818 9.09064C31.818 7.28235 31.0997 5.54812 29.821 4.26946C28.5423 2.9908 26.8081 2.27246 24.9998 2.27246C23.1915 2.27246 21.4573 2.9908 20.1786 4.26946C18.9 5.54812 18.1816 7.28235 18.1816 9.09064" stroke="white" stroke-width="4" stroke-linecap="round" stroke-linejoin="round"/>
</g>
<defs>
<clipPath id="clip0_151_451">
<rect width="50" height="44.3182" fill="white"/>
</clipPath>
</defs>
</svg>
