<svg width="30" height="30" viewBox="0 0 30 30" fill="none" xmlns="http://www.w3.org/2000/svg">
<g clip-path="url(#clip0_151_580)">
<path d="M28.2925 20.1484L21.3726 17.0473C21.059 16.9129 20.7169 16.8589 20.3773 16.8901C20.0376 16.9213 19.7111 17.0368 19.4273 17.226C19.3985 17.2445 19.371 17.265 19.3452 17.2875L15.7285 20.3637C15.691 20.3841 15.6492 20.3956 15.6065 20.3971C15.5638 20.3986 15.5213 20.3902 15.4824 20.3725C13.1577 19.2504 10.7495 16.8568 9.62306 14.5644C9.60431 14.5261 9.59455 14.484 9.59455 14.4413C9.59455 14.3987 9.60431 14.3566 9.62306 14.3183L12.7095 10.6562C12.7316 10.6291 12.7522 10.6007 12.771 10.5712C12.9576 10.2863 13.0703 9.95941 13.099 9.62004C13.1276 9.28067 13.0713 8.93951 12.9351 8.62736L9.85598 1.71915C9.68111 1.31136 9.37871 0.971267 8.99415 0.749933C8.60959 0.528599 8.16361 0.437959 7.72316 0.491615C5.80894 0.74327 4.05184 1.68332 2.78023 3.1361C1.50861 4.58888 0.809481 6.45497 0.813494 8.38566C0.813494 19.8554 10.1445 29.1864 21.6143 29.1864C23.5449 29.1901 25.4108 28.4909 26.8635 27.2193C28.3162 25.9478 29.2564 24.1909 29.5083 22.2768C29.5619 21.8384 29.4725 21.3944 29.2534 21.0109C29.0343 20.6274 28.6973 20.3249 28.2925 20.1484ZM21.6143 27.4286C11.1143 27.4286 2.57131 18.8857 2.57131 8.38566C2.56641 6.88263 3.10891 5.42922 4.09745 4.297C5.08598 3.16478 6.45293 2.4312 7.94289 2.23331H7.97658C8.03561 2.23442 8.09293 2.25333 8.14103 2.28757C8.18912 2.32181 8.22575 2.36979 8.24611 2.42521L11.3369 9.32609C11.3546 9.36445 11.3637 9.40618 11.3637 9.4484C11.3637 9.49063 11.3546 9.53235 11.3369 9.57072L8.24465 13.2416C8.22158 13.2678 8.20052 13.2957 8.18166 13.3251C7.98816 13.6205 7.87422 13.9609 7.85086 14.3132C7.82751 14.6656 7.89554 15.018 8.04836 15.3363C9.34767 17.9965 12.0283 20.6567 14.7178 21.956C15.038 22.1079 15.3921 22.1743 15.7456 22.1487C16.0992 22.123 16.44 22.0061 16.7349 21.8095C16.7627 21.7904 16.7905 21.7699 16.8169 21.748L20.4321 18.6718C20.4678 18.6526 20.5073 18.6414 20.5477 18.6388C20.5882 18.6363 20.6287 18.6426 20.6665 18.6571L27.5879 21.7582C27.6444 21.7823 27.692 21.8235 27.7238 21.8761C27.7556 21.9287 27.7701 21.9899 27.7652 22.0512C27.5683 23.5418 26.8354 24.9098 25.7034 25.8994C24.5715 26.8891 23.1179 27.4327 21.6143 27.4286Z" fill="black"/>
</g>
<defs>
<clipPath id="clip0_151_580">
<rect width="30" height="30" fill="white"/>
</clipPath>
</defs>
</svg>
