<svg width="32" height="35" viewBox="0 0 32 35" fill="none" xmlns="http://www.w3.org/2000/svg">
<path fill-rule="evenodd" clip-rule="evenodd" d="M23.7934 1.38008C18.5498 0.207944 13.112 0.207944 7.86838 1.38008L7.30338 1.50508C5.82841 1.83484 4.47373 2.56705 3.38983 3.62035C2.30593 4.67365 1.53524 6.00682 1.16338 7.47174C-0.165789 12.7093 -0.165789 18.1959 1.16338 23.4334C1.51801 24.8305 2.23572 26.109 3.24377 27.1393C4.25182 28.1696 5.51435 28.915 6.90338 29.3001L7.67838 33.9267C7.70312 34.0737 7.7668 34.2113 7.86277 34.3252C7.95875 34.4392 8.08352 34.5253 8.22409 34.5746C8.36466 34.624 8.51589 34.6348 8.66204 34.6058C8.80819 34.5769 8.9439 34.5093 9.05505 34.4101L13.6067 30.3384C17.0235 30.5469 20.4527 30.2737 23.7934 29.5267L24.3601 29.4017C25.835 29.072 27.1897 28.3398 28.2736 27.2865C29.3575 26.2332 30.1282 24.9 30.5001 23.4351C31.8291 18.1975 31.8291 12.711 30.5001 7.47341C30.1281 6.00827 29.3571 4.67496 28.2729 3.62164C27.1887 2.56832 25.8337 1.83624 24.3584 1.50674L23.7934 1.38008ZM9.27505 7.33674C8.96529 7.29166 8.64944 7.354 8.38005 7.51341H8.35672C7.73172 7.88008 7.16838 8.34174 6.68838 8.88508C6.28838 9.34674 6.07172 9.81341 6.01505 10.2634C5.98172 10.5301 6.00505 10.8001 6.08338 11.0551L6.11338 11.0717C6.56338 12.3934 7.15005 13.6651 7.86672 14.8617C8.7908 16.5426 9.92797 18.0971 11.25 19.4867L11.29 19.5434L11.3534 19.5901L11.3917 19.6351L11.4384 19.6751C12.8329 21.0011 14.3911 22.1437 16.075 23.0751C18 24.1234 19.1684 24.6184 19.87 24.8251V24.8351C20.075 24.8984 20.2617 24.9267 20.45 24.9267C21.0476 24.8826 21.6132 24.6397 22.0567 24.2367C22.5984 23.7567 23.0567 23.1917 23.4134 22.5634V22.5517C23.7484 21.9184 23.635 21.3217 23.1517 20.9167C22.1809 20.0685 21.1311 19.315 20.0167 18.6667C19.27 18.2617 18.5117 18.5067 18.205 18.9167L17.55 19.7434C17.2134 20.1534 16.6034 20.0967 16.6034 20.0967L16.5867 20.1067C12.035 18.9451 10.82 14.3367 10.82 14.3367C10.82 14.3367 10.7634 13.7101 11.185 13.3901L12.005 12.7301C12.3984 12.4101 12.6717 11.6534 12.25 10.9067C11.6061 9.79135 10.8541 8.74187 10.005 7.77341C9.81986 7.54549 9.56016 7.39025 9.27172 7.33508L9.27505 7.33674ZM16.965 5.33341C16.744 5.33341 16.5321 5.42121 16.3758 5.57749C16.2195 5.73377 16.1317 5.94573 16.1317 6.16674C16.1317 6.38776 16.2195 6.59972 16.3758 6.756C16.5321 6.91228 16.744 7.00008 16.965 7.00008C19.0734 7.00008 20.8234 7.68841 22.2084 9.00841C22.92 9.73008 23.475 10.5851 23.8384 11.5217C24.2034 12.4601 24.37 13.4617 24.3267 14.4651C24.3221 14.5745 24.3391 14.6838 24.3768 14.7866C24.4144 14.8895 24.4719 14.9839 24.546 15.0646C24.6958 15.2274 24.904 15.3241 25.125 15.3334C25.3461 15.3427 25.5617 15.2638 25.7246 15.1141C25.8874 14.9644 25.9841 14.7561 25.9934 14.5351C26.0451 13.3009 25.8402 12.0694 25.3917 10.9184C24.9413 9.76197 24.2583 8.71027 23.385 7.82841L23.3684 7.81174C21.65 6.17008 19.475 5.33341 16.965 5.33341ZM16.9084 8.07341C16.6874 8.07341 16.4754 8.16121 16.3191 8.31749C16.1628 8.47377 16.075 8.68573 16.075 8.90674C16.075 9.12776 16.1628 9.33972 16.3191 9.496C16.4754 9.65228 16.6874 9.74008 16.9084 9.74008H16.9367C18.4567 9.84841 19.5634 10.3551 20.3384 11.1867C21.1334 12.0434 21.545 13.1084 21.5134 14.4251C21.5083 14.6461 21.5912 14.8601 21.7439 15.0199C21.8966 15.1798 22.1065 15.2725 22.3275 15.2776C22.5486 15.2827 22.7625 15.1997 22.9224 15.0471C23.0823 14.8944 23.175 14.6844 23.18 14.4634C23.22 12.7351 22.6634 11.2434 21.56 10.0534V10.0501C20.4317 8.84008 18.8834 8.20008 17.02 8.07508L16.9917 8.07174L16.9084 8.07341ZM16.8767 10.8651C16.7652 10.8552 16.6528 10.868 16.5463 10.9025C16.4398 10.9371 16.3414 10.9927 16.2569 11.0661C16.1724 11.1396 16.1035 11.2293 16.0545 11.3299C16.0054 11.4305 15.9771 11.54 15.9713 11.6518C15.9654 11.7636 15.9822 11.8755 16.0206 11.9806C16.0589 12.0858 16.1181 12.1822 16.1945 12.264C16.2709 12.3458 16.363 12.4114 16.4653 12.4568C16.5677 12.5023 16.6781 12.5266 16.79 12.5284C17.4867 12.5651 17.9317 12.7751 18.2117 13.0567C18.4934 13.3401 18.7034 13.7951 18.7417 14.5067C18.7438 14.6186 18.7684 14.7288 18.814 14.831C18.8596 14.9331 18.9253 15.025 19.0071 15.1012C19.089 15.1774 19.1854 15.2364 19.2905 15.2746C19.3957 15.3127 19.5074 15.3293 19.6191 15.3234C19.7308 15.3175 19.8401 15.2891 19.9407 15.24C20.0412 15.1909 20.1307 15.1221 20.2041 15.0377C20.2774 14.9532 20.333 14.8549 20.3675 14.7485C20.4021 14.6421 20.4148 14.5298 20.405 14.4184C20.3517 13.4184 20.0384 12.5351 19.3967 11.8851C18.7517 11.2351 17.8734 10.9184 16.8767 10.8651Z" fill="#355D85"/>
</svg>
