<svg width="40" height="40" viewBox="0 0 40 40" fill="none" xmlns="http://www.w3.org/2000/svg">
<path d="M25.1218 3.33301H14.8952C5.55516 3.33301 3.3335 5.55467 3.3335 14.878V25.1047C3.3335 34.443 5.5385 36.6663 14.8785 36.6663H25.1052C34.4435 36.6663 36.6668 34.4613 36.6668 25.1213V14.8947C36.6668 5.55467 34.4618 3.33301 25.1218 3.33301ZM30.2435 27.1163H27.8118C26.8918 27.1163 26.6152 26.3713 24.9652 24.7213C23.5252 23.333 22.9168 23.1597 22.5518 23.1597C22.0485 23.1597 21.9102 23.298 21.9102 23.993V26.1797C21.9102 26.7713 21.7185 27.118 20.1735 27.118C18.6741 27.0172 17.22 26.5617 15.9312 25.7889C14.6423 25.0161 13.5554 23.9481 12.7602 22.673C10.8721 20.323 9.5584 17.5649 8.9235 14.618C8.9235 14.253 9.06183 13.923 9.75683 13.923H12.1868C12.8118 13.923 13.0368 14.2013 13.2818 14.843C14.4618 18.3163 16.4752 21.3363 17.2918 21.3363C17.6052 21.3363 17.7418 21.198 17.7418 20.4163V16.8397C17.6385 15.208 16.7718 15.0697 16.7718 14.4797C16.783 14.3241 16.8543 14.1789 16.9706 14.075C17.087 13.9711 17.2393 13.9165 17.3952 13.923H21.2152C21.7368 13.923 21.9102 14.183 21.9102 14.808V19.6347C21.9102 20.1563 22.1352 20.3297 22.2918 20.3297C22.6052 20.3297 22.8468 20.1563 23.4202 19.583C24.6516 18.0813 25.6577 16.4081 26.4068 14.6163C26.4834 14.4011 26.6283 14.2168 26.8194 14.0917C27.0105 13.9665 27.2373 13.9072 27.4652 13.923H29.8968C30.6252 13.923 30.7802 14.288 30.6252 14.808C29.741 16.7887 28.6469 18.6689 27.3618 20.4163C27.1002 20.8163 26.9952 21.0247 27.3618 21.493C27.6035 21.858 28.4552 22.5697 29.0285 23.2463C29.8617 24.0774 30.5535 25.039 31.0768 26.093C31.2852 26.7697 30.9368 27.1163 30.2435 27.1163Z" fill="#355D85"/>
</svg>
